<svg width="206" height="24" viewBox="0 0 206 24" fill="none" xmlns="http://www.w3.org/2000/svg">
<path d="M29.3116 22.9354H29.6654L29.483 22.6322L17.1273 2.10703C16.9006 1.71591 16.6334 1.39979 16.3232 1.16489C15.9983 0.918379 15.605 0.8 15.1553 0.8C14.7059 0.8 14.3093 0.9185 13.9756 1.16299L13.9754 1.16312C13.6554 1.39808 13.3829 1.71476 13.1554 2.10714C13.1552 2.10761 13.1549 2.10809 13.1546 2.10856L0.828545 22.6324L0.646589 22.9354H1H5.27603H5.39011L5.44818 22.8372L15.0087 6.67077L19.6135 14.4027L19.6137 14.403L21.4132 17.4401L21.4135 17.4404L24.628 22.8377L24.6861 22.9354H24.7998H29.3116Z" fill="#C81313" stroke="#C81313" stroke-width="0.4"/>
<path d="M38.6212 22.7354V22.9354H38.8212H46.666C50.4235 22.9354 53.2164 22.1355 55.0003 20.4938L55.0003 20.4938C56.7859 18.8499 57.6595 16.3287 57.6595 12.9735V1.29448V1.09448H57.4595H53.7148H53.5148V1.29448V12.9735C53.5148 15.025 52.9733 16.4827 51.9316 17.3945C50.8852 18.3097 49.1461 18.7896 46.666 18.7896H38.8212H38.6212V18.9896V22.7354Z" fill="#C81313" stroke="#C81313" stroke-width="0.4"/>
<path d="M73.1623 22.9354H73.3623V22.7354V1.29448V1.09448H73.1623H69.4176H69.2176V1.29448V22.7354V22.9354H69.4176H73.1623Z" fill="#C81313" stroke="#C81313" stroke-width="0.4"/>
<path d="M103.853 22.3451L103.853 22.3456C104.413 22.9044 105.031 23.2 105.706 23.2C106.31 23.2 106.814 22.9814 107.198 22.5428L107.198 22.5427C107.583 22.1017 107.763 21.4984 107.763 20.7595V1.11839V0.918394H107.563H103.994H103.794V1.11839V16.3266L89.0076 1.65447C89.0075 1.65437 89.0074 1.65427 89.0073 1.65416C88.7213 1.36827 88.4368 1.15518 88.153 1.02429L88.1528 1.02419C87.8718 0.895031 87.5781 0.829846 87.2733 0.829846C86.6326 0.829846 86.1072 1.05158 85.72 1.50425L85.7199 1.5044C85.3369 1.9532 85.1562 2.5494 85.1562 3.27031V22.7354V22.9354H85.3562H88.9249H89.1249V22.7354V7.5308L103.853 22.3451Z" fill="#C81313" stroke="#C81313" stroke-width="0.4"/>
<path d="M137.896 22.9354H138.491L138.017 22.576L123.748 11.766L137.573 1.4548L138.056 1.09448H137.453H131.703H131.635L131.581 1.13593L120.228 9.86467C120.228 9.86492 120.227 9.86516 120.227 9.8654C119.826 10.1667 119.539 10.4659 119.401 10.7665C119.268 11.0526 119.205 11.377 119.205 11.7349C119.205 12.0502 119.252 12.3439 119.35 12.614C119.457 12.9115 119.702 13.1905 120.05 13.4559C120.05 13.4562 120.05 13.4565 120.051 13.4568L132.051 22.8926L132.105 22.9354H132.174H137.896Z" fill="#3A3744" stroke="#3A3744" stroke-width="0.4"/>
<path d="M162.328 22.9354H162.528V22.7354V14.6692L173.893 1.42472L174.177 1.09448H173.741H168.964H168.871L168.811 1.16515L160.588 10.8652L152.395 1.16542L152.335 1.09448H152.242H147.2H146.765L147.048 1.42453L158.383 14.6691V22.7354V22.9354H158.583H162.328Z" fill="#C81313" stroke="#C81313" stroke-width="0.4"/>
<path d="M204.779 22.9354H205.133L204.951 22.6322L192.595 2.10703C192.369 1.716 192.102 1.39993 191.792 1.16503L191.792 1.16489C191.467 0.918471 191.073 0.8 190.624 0.8C190.174 0.8 189.778 0.918456 189.444 1.16312C189.124 1.39807 188.851 1.71474 188.623 2.10714C188.623 2.10761 188.623 2.10809 188.622 2.10856L176.296 22.6324L176.114 22.9354H176.468H180.744H180.858L180.916 22.8372L190.478 6.67076L195.082 14.4026L195.083 14.403L196.881 17.44L196.881 17.4404L200.096 22.8377L200.154 22.9354H200.268H204.779Z" fill="#C81313" stroke="#C81313" stroke-width="0.4"/>
</svg>
